<?xml version="1.0" encoding="UTF-8"?>
<svg version="1.1" xmlns="http://www.w3.org/2000/svg" width="2048" height="2048">
<path d="M0 0 C675.84 0 1351.68 0 2048 0 C2048 675.84 2048 1351.68 2048 2048 C1372.16 2048 696.32 2048 0 2048 C0 1372.16 0 696.32 0 0 Z " fill="#000000" transform="translate(0,0)"/>
<path d="M0 0 C1.09760651 0.00054382 2.19521301 0.00108765 3.32608032 0.00164795 C21.83999136 0.04365361 39.62017896 1.17560242 57.875 4.375 C59.20828693 4.6024857 60.54162141 4.82969283 61.875 5.05664062 C78.13878646 7.85446972 94.16477848 11.27687598 109.875 16.375 C110.69436035 16.63893555 111.5137207 16.90287109 112.35791016 17.17480469 C150.91032192 29.75261355 187.1589405 49.09936637 218.875 74.375 C219.83277344 75.138125 220.79054688 75.90125 221.77734375 76.6875 C227.13924553 81.01913454 232.33324675 85.49969209 237.42578125 90.14453125 C239.01563551 91.59238895 240.61666323 93.02810643 242.23046875 94.44921875 C253.38264682 104.2915162 263.66160428 114.69235249 272.875 126.375 C273.88892836 127.60274308 274.90607942 128.8278291 275.92578125 130.05078125 C283.48074315 139.13987099 290.43633388 148.46362231 296.875 158.375 C297.38530762 159.1597168 297.89561523 159.94443359 298.42138672 160.75292969 C307.09295009 174.19398474 314.80176139 188.03097496 321.875 202.375 C322.47755615 203.59292236 322.47755615 203.59292236 323.09228516 204.83544922 C330.72172891 220.46816971 336.37180224 236.90060841 341.875 253.375 C342.3083667 254.66954102 342.3083667 254.66954102 342.75048828 255.99023438 C346.12053301 266.31683527 348.03841292 276.96034049 350 287.625 C350.12283356 288.29126404 350.24566711 288.95752808 350.3722229 289.64398193 C351.26659812 294.54503431 352.08325774 299.45643587 352.875 304.375 C353.07835968 305.59875336 353.07835968 305.59875336 353.28582764 306.847229 C355.56452258 320.77244075 356.34900147 334.40211489 356.26611328 348.50585938 C356.25004313 351.74131624 356.26606679 354.97551817 356.28515625 358.2109375 C356.30647513 378.22869886 353.85505017 397.74418473 350.0625 417.375 C349.93560791 418.03935059 349.80871582 418.70370117 349.67797852 419.38818359 C346.42557751 436.36825117 342.92822997 453.32605883 336.45263672 469.40722656 C335.18385447 472.56487627 333.99936098 475.74734442 332.84078979 478.94732666 C329.63041939 487.75934297 325.87047041 496.20525457 321.75 504.625 C321.42651581 505.29077057 321.10303162 505.95654114 320.76974487 506.64248657 C315.09846192 518.2874167 308.88669019 529.47642428 301.875 540.375 C301.20597656 541.43460938 300.53695312 542.49421875 299.84765625 543.5859375 C290.56802076 557.90757368 280.18926672 571.60410612 268.875 584.375 C268.07578125 585.28507812 267.2765625 586.19515625 266.453125 587.1328125 C254.23835105 600.75114743 241.40251674 614.2180378 226.875 625.375 C225.78721179 626.27092528 224.70280533 627.1709661 223.62109375 628.07421875 C195.31196019 651.55540785 161.40122917 670.83941051 126.875 683.375 C126.0814209 683.66922852 125.2878418 683.96345703 124.47021484 684.26660156 C106.9431103 690.74715239 88.97287227 696.69202129 70.5078125 699.76953125 C67.8085299 700.21941168 65.17505506 700.73944036 62.50390625 701.31640625 C-24.57833389 718.82305245 -117.98539663 695.92907603 -191.4453125 647.5546875 C-205.07013675 638.42127888 -217.72838846 628.0950867 -230.125 617.375 C-231.34896484 616.32119141 -231.34896484 616.32119141 -232.59765625 615.24609375 C-238.03133238 610.46554731 -243.18439745 605.41593974 -248.3125 600.3125 C-248.97805908 599.65161377 -249.64361816 598.99072754 -250.3293457 598.30981445 C-254.79691397 593.82780422 -259.00369155 589.1755273 -263.125 584.375 C-263.98222656 583.39917969 -264.83945312 582.42335938 -265.72265625 581.41796875 C-278.14815552 567.02329368 -289.14463956 551.54981019 -299.125 535.375 C-299.76719482 534.34995361 -299.76719482 534.34995361 -300.42236328 533.30419922 C-312.47449258 513.93842331 -323.09095479 492.36681606 -330.0703125 470.62890625 C-330.98257603 467.81440432 -332.01846752 465.15164905 -333.1875 462.4375 C-339.33084411 447.20606833 -341.87288856 430.89479797 -344.63183594 414.79492188 C-345.01534187 412.37798352 -345.01534187 412.37798352 -346.125 410.375 C-353.06414507 373.49779635 -353.0576353 333.68885707 -345.81298828 296.91210938 C-345.14646782 293.48537111 -344.56000388 290.05431658 -343.99609375 286.609375 C-334.02106011 227.61279315 -304.64328721 169.81040906 -265.45166016 124.91210938 C-264.07541137 123.31754508 -262.72830888 121.70192973 -261.38671875 120.078125 C-253.66750147 110.75392195 -245.49369122 102.09934141 -236.26171875 94.234375 C-234.13085206 92.38009247 -232.06767615 90.46292469 -230.00683594 88.53149414 C-200.18510108 60.69562012 -163.83920917 39.5045374 -126.125 24.375 C-125.42890625 24.09462891 -124.7328125 23.81425781 -124.015625 23.52539062 C-119.42373989 21.69496398 -114.79302063 20.00059447 -110.125 18.375 C-109.3417334 18.09946289 -108.5584668 17.82392578 -107.75146484 17.54003906 C-73.14564756 5.51547268 -36.54870711 -0.06842192 0 0 Z " fill="#FDFEFD" transform="translate(1021.125,670.625)"/>
<path d="M0 0 C2.55104522 0.01839342 5.1017269 0.0205077 7.65283203 0.02026367 C21.18640398 0.04667816 33.92374902 0.93176404 47.16455078 3.95581055 C48.35556396 4.22603027 49.54657715 4.49625 50.77368164 4.7746582 C59.06346629 6.70283181 66.93999709 8.87767436 74.78955078 12.20581055 C75.45116211 12.48118652 76.11277344 12.7565625 76.79443359 13.0402832 C107.57128539 25.92313094 137.47687856 44.00531473 158.78955078 70.20581055 C159.21171875 70.71031738 159.63388672 71.21482422 160.06884766 71.73461914 C182.03898084 97.99179134 197.1328135 127.78120743 204.78955078 161.20581055 C205.01126953 162.10686523 205.23298828 163.00791992 205.46142578 163.9362793 C206.01079458 166.35433438 206.42391295 168.7528422 206.78955078 171.20581055 C206.97388672 172.43686523 207.15822266 173.66791992 207.34814453 174.9362793 C211.31433983 204.59520495 210.23206169 236.69852119 200.78955078 265.20581055 C200.44355835 266.27605469 200.44355835 266.27605469 200.09057617 267.36791992 C185.79841873 311.10410659 159.08327065 349.24647669 120.78955078 375.20581055 C119.71189453 375.94573242 118.63423828 376.6856543 117.52392578 377.44799805 C103.57833997 386.73403978 88.63519916 394.71665495 72.78955078 400.20581055 C71.59072266 400.68018555 70.39189453 401.15456055 69.15673828 401.64331055 C25.10132065 418.18292259 -30.08505489 417.04541862 -73.21044922 398.20581055 C-74.12810059 397.80507324 -75.04575195 397.40433594 -75.99121094 396.99145508 C-99.33414186 386.62811226 -122.59800497 373.03445938 -140.21044922 354.20581055 C-142.58267735 351.80658145 -144.96658662 349.43421707 -147.42919922 347.12768555 C-159.52555461 335.6112924 -169.23855229 321.83568211 -177.21044922 307.20581055 C-177.54351074 306.59479492 -177.87657227 305.9837793 -178.21972656 305.35424805 C-194.75593066 274.5532522 -203.42229993 241.72708225 -203.39794922 206.76831055 C-203.39767731 206.10895508 -203.3974054 205.44959961 -203.39712524 204.77026367 C-203.36702935 188.85266642 -202.03972323 173.6847069 -198.21044922 158.20581055 C-197.94619141 157.06499023 -197.68193359 155.92416992 -197.40966797 154.7487793 C-193.24221515 137.80358569 -186.61415333 121.4830991 -178.21044922 106.20581055 C-177.69877197 105.27526855 -177.69877197 105.27526855 -177.17675781 104.32592773 C-169.67867235 90.89433169 -160.57848465 78.49660934 -150.09326172 67.2409668 C-148.52583484 65.54671492 -147.07555715 63.82881994 -145.64794922 62.01831055 C-143.07383977 59.04818425 -140.33856929 56.57583294 -137.34716797 54.0378418 C-135.96953228 52.85665141 -134.61543789 51.64715429 -133.29248047 50.4050293 C-121.46167224 39.35226261 -107.55906295 30.59838968 -93.21044922 23.20581055 C-92.41654785 22.79588867 -91.62264648 22.3859668 -90.8046875 21.96362305 C-75.12517693 13.9678904 -59.07173573 7.82359235 -41.89794922 3.89331055 C-41.25446533 3.74587402 -40.61098145 3.5984375 -39.94799805 3.4465332 C-26.66549965 0.64658976 -13.52643436 -0.10063144 0 0 Z " fill="#010101" transform="translate(1021.21044921875,817.794189453125)"/>
<path d="M0 0 C0.66 0 1.32 0 2 0 C3.46456147 2.22418879 4.80707865 4.44064805 6.125 6.75 C6.94197461 8.14182199 7.76101293 9.53243451 8.58203125 10.921875 C8.99146973 11.61603516 9.4009082 12.31019531 9.82275391 13.02539062 C16.0040018 23.39327386 23.36889067 32.68908673 31 42 C31.92345145 43.13258885 32.84664129 44.26539107 33.76953125 45.3984375 C35.84117681 47.93661112 37.91761398 50.47063719 40 53 C38.45025997 57.67578707 35.87703811 61.1266556 32.9375 65 C31.93226384 66.34796758 30.92837637 67.6969419 29.92578125 69.046875 C29.17868896 70.05137695 29.17868896 70.05137695 28.41650391 71.07617188 C23.70836386 77.4705434 19.3031351 84.0872753 14.83203125 90.6484375 C14.27112793 91.47053711 13.71022461 92.29263672 13.13232422 93.13964844 C12.04233403 94.73804949 10.9539816 96.33756926 9.86767578 97.93847656 C7.00816206 102.13505699 4.08414455 106.27014125 1.078125 110.36328125 C-3.02744515 115.97983061 -6.86790001 121.74923654 -10.6875 127.5625 C-15.48531192 134.817184 -20.35074508 141.99012392 -25.5 149 C-31.34502815 156.95908986 -36.81118546 165.14592624 -42.25854492 173.38085938 C-46.59778638 179.92994353 -51.04448656 186.36870264 -55.65234375 192.73046875 C-58.77179218 197.04656237 -61.76116993 201.45151589 -64.76611328 205.84765625 C-67.54967471 209.91198558 -70.37220323 213.94472311 -73.23120117 217.95629883 C-78.66372873 225.58005209 -83.89750275 233.3174319 -89.0625 241.125 C-93.88073007 248.40385578 -98.77570261 255.57590335 -103.99951172 262.56884766 C-108.09837592 268.07312383 -111.96142862 273.72615019 -115.81982422 279.40063477 C-120.11199319 285.71106304 -124.45001001 291.9879893 -128.8125 298.25 C-129.48007324 299.20849854 -130.14764648 300.16699707 -130.83544922 301.15454102 C-132.19996659 303.11311509 -133.56471432 305.07152871 -134.9296875 307.02978516 C-146.75788386 323.98509009 -146.75788386 323.98509009 -158.5 341 C-166.97226749 353.35391976 -175.55909045 365.62890127 -184.125 377.91796875 C-190.90822966 387.65388883 -197.66001202 397.40880076 -204.34399414 407.21313477 C-207.89052772 412.40526876 -211.48942419 417.55737694 -215.125 422.6875 C-219.15450595 428.37562583 -223.1618186 434.07790656 -227.125 439.8125 C-227.58664551 440.47660889 -228.04829102 441.14071777 -228.52392578 441.82495117 C-230.59309013 444.82894138 -232.36343626 447.72687252 -234 451 C-146.88 451 -59.76 451 30 451 C30.66 449.68 31.32 448.36 32 447 C33.41469563 444.79330438 34.84816367 442.61072 36.3125 440.4375 C36.75126465 439.78330078 37.1900293 439.12910156 37.64208984 438.45507812 C46.70878613 424.96722181 55.95973432 411.60871861 65.25927734 398.28076172 C68.98286181 392.93368362 72.66109805 387.56333404 76.25 382.125 C81.1272013 374.73766847 86.2410165 367.52606324 91.36425781 360.30810547 C98.81517468 349.79452814 106.22130895 339.25792519 113.31958008 328.50244141 C116.39818501 323.8560342 119.58544243 319.29431989 122.8125 314.75 C131.17745648 302.9685424 139.33672027 291.04825414 147.3125 279 C150.71400814 273.86372944 154.24850014 268.85591333 157.90234375 263.89453125 C160.80175688 259.89366509 163.5855719 255.8175308 166.37524414 251.73974609 C170.51000792 245.70001512 174.68918614 239.69193669 178.875 233.6875 C183.78123845 226.64601129 188.66426255 219.59009345 193.5 212.5 C198.50571909 205.1623947 203.55456087 197.85553486 208.625 190.5625 C209.31271484 189.5725 210.00042969 188.5825 210.70898438 187.5625 C211.35416016 186.63566406 211.99933594 185.70882813 212.6640625 184.75390625 C213.23592285 183.93220947 213.8077832 183.1105127 214.39697266 182.26391602 C215.89583762 180.14710596 217.43272199 178.06649605 219 176 C229.88343375 178.64687739 240.70183116 181.50838035 251.50927734 184.44946289 C266.57514486 188.6607868 266.57514486 188.6607868 282 191 C282 195.17880605 281.76508719 195.83551887 279.5078125 199.0546875 C278.70476685 200.2137561 278.70476685 200.2137561 277.88549805 201.39624023 C277.30453369 202.21423096 276.72356934 203.03222168 276.125 203.875 C275.53436768 204.72199463 274.94373535 205.56898926 274.33520508 206.44165039 C270.41656957 212.04627817 266.44144478 217.6115535 262.44628906 223.16186523 C260.01771724 226.54311651 257.66681521 229.96232922 255.375 233.4375 C251.41085713 239.44402073 247.30342821 245.34667287 243.1875 251.25 C233.55615751 265.06585765 224.02848803 278.94861993 214.54663086 292.86743164 C210.44387252 298.88838979 206.32593549 304.89851625 202.19213867 310.89819336 C199.01444383 315.51412159 195.85806531 320.14424527 192.70654297 324.77807617 C186.144688 334.42462888 179.5206751 344.02500665 172.84765625 353.5949707 C166.50835401 362.69146702 160.24619949 371.83942761 154 381 C146.36987656 392.19021227 138.68729085 403.34117678 130.94213867 414.45214844 C126.2393483 421.20377409 121.57941763 427.98310191 116.94458008 434.78149414 C112.56586666 441.19508905 108.13035961 447.5682222 103.6875 453.9375 C99.02203256 460.62810892 94.3973087 467.33424482 89.90234375 474.140625 C83.59599113 483.61957801 77.06209173 492.94702236 70.5 502.25 C69.74348145 503.32254028 69.74348145 503.32254028 68.97167969 504.41674805 C66.28203076 508.21918223 66.28203076 508.21918223 65 510 C64.62046683 510.68616386 64.24093365 511.37232772 63.84989947 512.07928443 C62 514 62 514 58.96000034 514.49679399 C57.69743024 514.4952751 56.43486014 514.49375622 55.13403034 514.49219131 C54.42820536 514.49680669 53.72238037 514.50142207 52.99516675 514.50617731 C50.61182752 514.51682991 48.22955266 514.49876864 45.8462677 514.48101807 C44.127759 514.48276115 42.40925132 514.48626123 40.69074935 514.49137473 C35.95433761 514.50035017 31.21828532 514.48427598 26.48191941 514.46426249 C21.37967483 514.4470387 16.27745162 514.45283058 11.17518616 514.45587158 C2.33051029 514.45797217 -6.51404783 514.44538901 -15.35869408 514.42292023 C-28.14665426 514.39045502 -40.93455732 514.37999883 -53.72255424 514.37496826 C-74.46863292 514.36620699 -95.2146488 514.33956887 -115.96069336 514.30175781 C-136.11726568 514.26505923 -156.27382096 514.23673693 -176.43041992 514.21972656 C-177.67222191 514.21867567 -178.9140239 514.21762477 -180.19345625 514.21654204 C-186.42301789 514.211322 -192.65257964 514.20626714 -198.88214147 514.20129442 C-250.58813773 514.1598065 -302.2940658 514.08933546 -354 514 C-352.2986413 509.49598021 -349.9533882 505.78989298 -347.1875 501.875 C-346.18968932 500.44429965 -345.19231161 499.01329726 -344.1953125 497.58203125 C-343.67227539 496.8338916 -343.14923828 496.08575195 -342.61035156 495.31494141 C-340.4493523 492.20842306 -338.31987437 489.08091164 -336.19018555 485.95288086 C-330.99041294 478.31661663 -325.71921059 470.7361198 -320.37695312 463.19897461 C-314.04641664 454.25886421 -307.86923173 445.21416373 -301.703125 436.16015625 C-296.52714102 428.56582966 -291.33764972 421.00149027 -285.890625 413.59765625 C-280.74457653 406.52715578 -275.83699088 399.28427793 -271 392 C-263.35494363 380.48744452 -255.3594829 369.21179004 -247.4296875 357.89453125 C-246.86588379 357.08967285 -246.30208008 356.28481445 -245.72119141 355.45556641 C-244.55774975 353.79572298 -243.39333572 352.13656076 -242.22802734 350.47802734 C-238.92301341 345.76917806 -235.6532487 341.03927966 -232.42236328 336.27929688 C-226.90561772 328.15302099 -221.24626309 320.1510344 -215.45898438 312.21557617 C-212.04302649 307.50924958 -208.86079903 302.71860739 -205.8046875 297.76953125 C-203.50556101 294.24121809 -201.01246531 290.87829562 -198.5 287.5 C-194.69915885 282.3891633 -191.15994343 277.2098137 -187.796875 271.796875 C-184.09768063 266.03899854 -180.01140128 260.54264321 -176 255 C-170.93584248 247.99591974 -165.94061477 240.96988492 -161.1875 233.75 C-157.49397379 228.14353288 -153.64128665 222.67579736 -149.6875 217.25 C-143.45909585 208.69984083 -137.47250627 199.99964692 -131.53027344 191.24902344 C-129.19970691 187.82381941 -126.85023991 184.41172143 -124.5 181 C-121.60723935 176.79882308 -118.72065586 172.593629 -115.84765625 168.37890625 C-110.04505223 159.86922965 -104.19489476 151.39904589 -98.24072266 142.99462891 C-92.87550493 135.42135609 -87.59436174 127.79130038 -82.3515625 120.1328125 C-77.89623624 113.62885279 -73.41723539 107.1493194 -68.8125 100.75 C-65.17837848 95.69517774 -61.67911077 90.56942415 -58.24609375 85.375 C-50.82834736 74.18511241 -43.15109041 63.16789038 -35.38867188 52.21533203 C-28.76660093 42.86330138 -22.25599435 33.43504655 -15.9375 23.875 C-12.53042255 18.72558687 -8.96466164 13.70413785 -5.32397461 8.71826172 C-3.28702743 5.90713629 -1.41705792 3.17670127 0 0 Z " fill="#FCFDFD" transform="translate(680,1225)"/>
<path d="M0 0 C0.66 0 1.32 0 2 0 C3.10986328 1.37011719 3.10986328 1.37011719 4.3203125 3.296875 C4.76874512 4.00191162 5.21717773 4.70694824 5.67919922 5.43334961 C6.15631348 6.19784424 6.63342773 6.96233887 7.125 7.75 C8.12969149 9.3297559 9.13490174 10.909182 10.140625 12.48828125 C10.63240234 13.26510254 11.12417969 14.04192383 11.63085938 14.84228516 C17.1789804 23.58591811 23.13607648 31.9966666 29.22216797 40.36914062 C32.88957596 45.42631441 36.42713776 50.54516331 39.859375 55.765625 C46.59757489 65.94670075 53.54706192 75.99016089 60.625 85.9375 C66.03527513 93.54489266 71.27165783 101.26721014 76.5 109 C83.54706614 119.42055735 90.6934457 129.75939938 98 140 C105.26476984 150.20562856 112.39994731 160.48907175 119.43725586 170.85302734 C123.65744155 177.05870788 127.95111426 183.20486294 132.30297852 189.31860352 C136.77557046 195.62792804 141.10529819 202.03126975 145.4375 208.4375 C150.94048779 216.57015331 156.54027292 224.60874065 162.33007812 232.53930664 C166.69335703 238.5306442 170.88904453 244.62614049 175.05566406 250.75537109 C178.98928163 256.53781252 182.97911038 262.2779434 187 268 C191.63173957 274.59272985 196.21408939 281.2159828 200.75 287.875 C204.92303201 293.99936882 209.1558406 300.07210797 213.48242188 306.08886719 C216.8730318 310.80659591 220.18231147 315.57675814 223.48046875 320.359375 C226.48695859 324.71250905 229.52595437 329.04280529 232.5625 333.375 C243.13329514 348.46480645 253.68083077 363.56962873 264.06225586 378.79052734 C269.05982846 386.10881358 274.12322585 393.38069921 279.19042969 400.65087891 C283.06470015 406.21136519 286.92102261 411.7832428 290.75 417.375 C294.51242513 422.86948064 298.33537454 428.31807027 302.1875 433.75 C305.43815955 438.33567885 308.65524552 442.93185585 311.75 447.625 C316.35385604 454.60286949 321.15694904 461.44101559 325.93774414 468.29833984 C330.73441508 475.17875107 335.51198088 482.07126318 340.25 488.9921875 C342.34195468 492.04762428 344.45023872 495.09138097 346.5625 498.1328125 C347.77088205 499.88017464 348.97921608 501.62757 350.1875 503.375 C350.7652417 504.20290039 351.3429834 505.03080078 351.93823242 505.88378906 C352.46779541 506.65174805 352.9973584 507.41970703 353.54296875 508.2109375 C354.01758545 508.89462402 354.49220215 509.57831055 354.98120117 510.28271484 C356 512 356 512 356 514 C303.20865563 514.38915868 250.41745626 514.68868746 197.62495951 514.8681106 C191.39157223 514.88937247 185.15818776 514.91137596 178.92480469 514.93383789 C177.68385667 514.93829717 176.44290865 514.94275645 175.16435614 514.94735085 C155.0740593 515.0213126 134.98458989 515.15534292 114.89478382 515.31159753 C94.27883128 515.47060639 73.66331188 515.56500565 53.04677129 515.59950441 C40.32592606 515.62282513 27.60741943 515.69645605 14.8872942 515.83457994 C6.16306451 515.92448456 -2.55995738 515.95159374 -11.28461662 515.92952342 C-16.31846894 515.9186382 -21.3482382 515.93523881 -26.38136292 516.02649307 C-58.18672129 516.5751407 -58.18672129 516.5751407 -64.93227386 510.31634331 C-67.75174199 506.85486812 -69.58349462 503.25667486 -71.14432669 499.09181201 C-72.48074681 495.82474779 -74.45961867 493.26422473 -76.5625 490.4375 C-78.85913943 487.11147397 -81.15043191 483.78182937 -83.4375 480.44921875 C-84.3124624 479.17445336 -85.18746367 477.89971465 -86.0625 476.625 C-86.51407471 475.96701416 -86.96564941 475.30902832 -87.4309082 474.63110352 C-91.51108072 468.69409436 -95.62998054 462.78439803 -99.75 456.875 C-105.72161061 448.30783687 -111.62626286 439.69784759 -117.49511719 431.06005859 C-121.61526236 425.00554753 -125.7880247 418.9909315 -130 413 C-136.85980936 403.2420353 -143.57444775 393.3882316 -150.28076172 383.52441406 C-152.76001694 379.88404215 -155.25294992 376.25318087 -157.75 372.625 C-158.19577393 371.97700439 -158.64154785 371.32900879 -159.10083008 370.66137695 C-161.19210672 367.62262866 -163.28592453 364.58565984 -165.3828125 361.55078125 C-169.8870848 355.02385267 -174.35968985 348.47631847 -178.80078125 341.90625 C-179.23368973 341.26585785 -179.66659821 340.6254657 -180.11262512 339.96566772 C-181.01273978 338.63407644 -181.91285059 337.30248257 -182.81295776 335.97088623 C-183.2665567 335.29986877 -183.72015564 334.62885132 -184.1875 333.9375 C-184.6411795 333.26632141 -185.09485901 332.59514282 -185.56228638 331.90362549 C-192.23627036 322.03428528 -198.98443376 312.22213835 -205.80859375 302.45581055 C-209.5986162 297.02825122 -213.32457315 291.57088704 -216.97265625 286.046875 C-224.72016903 274.40321418 -232.72556835 262.93307441 -240.76367188 251.48901367 C-245.30762648 245.01160891 -249.78049992 238.48802771 -254.23510742 231.94897461 C-257.87541528 226.61568151 -261.57578121 221.32860314 -265.3125 216.0625 C-268.80618011 211.12789781 -272.28628703 206.18643579 -275.6875 201.1875 C-276.62142578 199.81658203 -276.62142578 199.81658203 -277.57421875 198.41796875 C-278.87507877 196.21185272 -279.56233002 194.5034723 -280 192 C-279.15824219 191.79246094 -278.31648438 191.58492187 -277.44921875 191.37109375 C-268.32884654 189.10757458 -259.22403613 186.7852982 -250.125 184.4375 C-248.98506592 184.14480225 -247.84513184 183.85210449 -246.6706543 183.55053711 C-238.93388407 181.54854986 -231.21477696 179.51095778 -223.6875 176.8125 C-220.72658622 175.91734002 -219.06076743 175.47875253 -216 176 C-214.12204473 178.10541609 -212.70054642 180.00529914 -211.19921875 182.359375 C-210.75914993 183.01899231 -210.31908112 183.67860962 -209.86567688 184.35821533 C-208.45651114 186.4784566 -207.0718963 188.61352348 -205.6875 190.75 C-204.76786351 192.14297642 -203.84665457 193.53491607 -202.92382812 194.92578125 C-201.11575369 197.65649781 -199.31659379 200.39271893 -197.52612305 203.13500977 C-192.25650691 211.20574247 -186.91679083 219.21947121 -181.3125 227.0625 C-175.2481078 235.60125793 -169.3398103 244.24266922 -163.43847656 252.89453125 C-159.98575426 257.94821033 -156.49322714 262.9742844 -153 268 C-152.15163574 269.22130615 -152.15163574 269.22130615 -151.28613281 270.46728516 C-149.29547881 273.33274426 -147.30412012 276.19771231 -145.3125 279.0625 C-144.27452271 280.55583862 -144.27452271 280.55583862 -143.21557617 282.0793457 C-139.9618401 286.75685108 -136.70222517 291.42979973 -133.41796875 296.0859375 C-127.12437644 305.01482628 -120.96592136 314.01450782 -114.9375 323.125 C-109.65471344 331.10651192 -104.23923668 338.95460412 -98.59277344 346.68261719 C-91.83631949 355.93207166 -85.37985179 365.38348032 -79.0625 374.9375 C-75.96607797 379.61028234 -72.75263022 384.18581669 -69.5 388.75 C-64.52350778 395.74050035 -59.73917748 402.84683209 -55 410 C-46.07237624 423.61818338 -46.07237624 423.61818338 -36.50273895 436.78656292 C-35 439 -35 439 -33.8562088 441.74478626 C-32.09309611 445.26280181 -30.37853877 447.95470318 -27 450 C-18.95619956 452.22807094 -10.11787357 451.44610815 -1.85742188 451.34057617 C0.7447268 451.34733762 3.34686675 451.35893376 5.94897461 451.375 C11.54562235 451.40194009 17.14101447 451.38884352 22.73756409 451.34822655 C30.82888745 451.28956213 38.91930262 451.29178456 47.01077932 451.30866591 C60.1395704 451.33441225 73.26779746 451.31120677 86.39648438 451.25708008 C99.14654395 451.20461953 111.89631201 451.17529853 124.64648438 451.17700195 C125.82618194 451.17714751 125.82618194 451.17714751 127.02971178 451.17729601 C130.97534167 451.17792527 134.92097128 451.17900845 138.86660099 451.18031728 C171.57801295 451.19058139 204.28880736 451.12134432 237 451 C236.53071579 450.3307399 236.06143158 449.6614798 235.57792664 448.97193909 C234.95626114 448.08473679 234.33459564 447.19753448 233.6940918 446.28344727 C233.08043259 445.40793716 232.46677338 444.53242706 231.83451843 443.63038635 C229.13041705 439.75316645 226.47206899 435.84532775 223.8125 431.9375 C219.63642993 425.81544629 215.41695519 419.72883439 211.125 413.6875 C206.54659574 407.23981543 202.06817187 400.72904189 197.625 394.1875 C191.11293133 384.60201319 184.49239611 375.09772685 177.83300781 365.61425781 C169.02811529 353.05661408 160.29089213 340.45343473 151.65209961 327.78100586 C147.66650777 321.94573343 143.60338287 316.16894757 139.51416016 310.40600586 C135.27109391 304.41387349 131.1257795 298.3579266 126.99169922 292.2902832 C123.08038457 286.55774457 119.11585156 280.86489483 115.125 275.1875 C110.14667359 268.10360003 105.23943295 260.97506092 100.375 253.8125 C95.45725634 246.57199837 90.47658183 239.38385823 85.40869141 232.24780273 C81.25281872 226.3856233 77.19308461 220.46091978 73.1472168 214.52246094 C68.70255535 208.0063535 64.20073098 201.53125531 59.6875 195.0625 C51.69045268 183.59695503 51.69045268 183.59695503 47.875 177.8125 C42.11019108 169.07679174 36.01845726 160.56173569 30 152 C22.56893112 141.42322667 15.17478912 130.82538243 7.89428711 120.14428711 C3.39532569 113.55348226 -1.17840386 107.01696944 -5.76513672 100.48706055 C-10.30433278 94.01609054 -14.77892105 87.50319004 -19.21972656 80.96435547 C-21.91330327 77.00863145 -24.64199073 73.08593583 -27.4453125 69.20703125 C-28.27748291 68.05110474 -28.27748291 68.05110474 -29.12646484 66.87182617 C-30.17929862 65.41479921 -31.2391237 63.96278879 -32.30712891 62.5168457 C-37.17322074 55.7737376 -37.17322074 55.7737376 -37 52 C-35.15625 49.203125 -35.15625 49.203125 -32.5 46.25 C-31.56154182 45.17922444 -30.62404568 44.10760497 -29.6875 43.03515625 C-29.22472656 42.51453613 -28.76195312 41.99391602 -28.28515625 41.45751953 C-18.69839935 30.58500079 -11.09352415 17.96556028 -3.59375 5.609375 C-2.43627001 3.71428521 -1.23177486 1.84766229 0 0 Z " fill="#FDFDFD" transform="translate(1366,1225)"/>
<path d="M0 0 C52.18848895 -0.34330409 104.37686386 -0.60762949 156.56625979 -0.76597994 C162.72711775 -0.78474063 168.88797349 -0.80415545 175.04882812 -0.82397461 C176.27534769 -0.82790927 177.50186726 -0.83184392 178.76555409 -0.83589781 C198.6275467 -0.90117491 218.48888835 -1.01944655 238.35049473 -1.15729194 C258.72914603 -1.29754658 279.10745632 -1.38087747 299.48657048 -1.41132742 C312.06286956 -1.43191402 324.63732881 -1.49693676 337.21306153 -1.618747 C345.83583569 -1.69801567 354.45765831 -1.72200742 363.08077042 -1.70252066 C368.05732594 -1.69290757 373.03066677 -1.70767044 378.00665092 -1.78808212 C382.56585437 -1.86122008 387.1196919 -1.86470695 391.67914523 -1.81348342 C393.32545024 -1.80715673 394.97209319 -1.82610096 396.61773513 -1.87324774 C408.59553288 -2.19636993 408.59553288 -2.19636993 412.62924805 1.48824303 C415.65141761 5.11692257 417.92332654 9.08400762 420.07620813 13.27221804 C421.2446062 15.45749069 422.64861662 17.38761976 424.1796875 19.33203125 C424.62739502 19.9132373 425.07510254 20.49444336 425.53637695 21.09326172 C425.97812256 21.66061035 426.41986816 22.22795898 426.875 22.8125 C432.87260688 30.66088107 438.30615836 38.83906445 443.73242188 47.08789062 C445.81840972 50.23455026 447.99078124 53.31737787 450.171875 56.3984375 C452.58217565 59.82848073 454.94454567 63.2906462 457.3125 66.75 C460.7802862 71.81031167 464.29048301 76.83424704 467.875 81.8125 C474.65726595 91.24391903 481.14995397 100.87517847 487.68652344 110.47753906 C495.67590775 122.21820689 495.67590775 122.21820689 503.875 133.8125 C510.7880941 143.39890535 517.35837009 153.22483631 524 163 C530.31630418 172.29281486 536.76033031 181.47102257 543.36669922 190.56030273 C547.08089781 195.6852735 550.6473988 200.87521067 554.125 206.1640625 C559.48669653 214.27362849 565.1313162 222.19252559 570.75 230.125 C575.16315872 236.35617818 579.50826281 242.63061412 583.8125 248.9375 C584.36776367 249.750979 584.92302734 250.56445801 585.49511719 251.40258789 C586.02911133 252.18496826 586.56310547 252.96734863 587.11328125 253.7734375 C591.339816 259.96552001 595.62318221 266.10850976 600.02734375 272.17578125 C601.16414616 273.74212679 602.30086247 275.30853481 603.4375 276.875 C604.00911865 277.66253662 604.5807373 278.45007324 605.16967773 279.26147461 C608.22866854 283.49249928 611.20718876 287.75243132 614.0625 292.125 C617.73516564 297.73188401 621.72865447 303.06625886 625.78930664 308.39501953 C627.20418373 310.25516057 628.60415663 312.12555247 630 314 C630.42345703 314.55075195 630.84691406 315.10150391 631.28320312 315.66894531 C632.421875 317.2265625 632.421875 317.2265625 634 320 C633.59863281 322.17333984 633.59863281 322.17333984 633 324 C632.28158936 324.15557373 631.56317871 324.31114746 630.82299805 324.47143555 C612.78857887 328.38577012 612.78857887 328.38577012 594.875 332.8125 C594.08311279 333.0189917 593.29122559 333.2254834 592.4753418 333.43823242 C588.95014502 334.15774793 588.95014502 334.15774793 586 336 C583.66040039 336.33959961 583.66040039 336.33959961 581 336 C579.15405273 334.15844727 579.15405273 334.15844727 577.43359375 331.56640625 C576.7893042 330.61580322 576.14501465 329.6652002 575.48120117 328.68579102 C574.80677979 327.65510498 574.1323584 326.62441895 573.4375 325.5625 C572.00580617 323.43709717 570.57350988 321.31210004 569.140625 319.1875 C568.43744141 318.13304687 567.73425781 317.07859375 567.00976562 315.9921875 C564.30496654 311.96521743 561.50564559 308.01053585 558.6875 304.0625 C553.87584104 297.27491366 549.15212749 290.4296255 544.44921875 283.56640625 C542.48320581 280.69877273 540.49928143 277.84458332 538.5 275 C536.04521928 271.507331 533.62081206 267.99516571 531.20776367 264.47363281 C526.42298307 257.49111834 521.58430323 250.55019298 516.69482422 243.640625 C506.23080739 228.85210747 495.88586618 213.983811 485.65429688 199.03369141 C478.52773366 188.62326939 471.29472391 178.29319745 464 168 C456.6753421 157.66456428 449.41942488 147.28785313 442.25976562 136.83740234 C436.88112476 128.9925087 431.4371899 121.19768831 425.9375 113.4375 C422.55781266 108.66695146 419.22018924 103.88049472 416 99 C412.37969534 93.51355891 408.59743891 88.15372017 404.79101562 82.79589844 C400.23191826 76.36441706 395.78098444 69.86190489 391.36450195 63.33178711 C390.85234131 62.57776611 390.34018066 61.82374512 389.8125 61.046875 C389.36519531 60.38526367 388.91789062 59.72365234 388.45703125 59.04199219 C387.73580078 58.03120605 387.73580078 58.03120605 387 57 C386.31453913 55.71792774 386.31453913 55.71792774 385.61523056 54.40995502 C381.45953342 50.58044823 377.15572041 51.3263033 371.69927979 51.39872742 C370.53204966 51.39445529 369.36481954 51.39018317 368.16221881 51.38578159 C364.92143609 51.37896293 361.68165022 51.39461227 358.44098544 51.41967189 C354.94681742 51.44124493 351.4526967 51.43395872 347.95848083 51.43016052 C341.90428883 51.42753752 335.85036605 51.44323767 329.79624176 51.47134972 C321.04301971 51.51196846 312.28992798 51.52500524 303.5366219 51.53128967 C289.33537594 51.54223543 275.13427349 51.57551721 260.93310547 51.62280273 C247.13721434 51.66869107 233.34136218 51.70408652 219.54541016 51.7253418 C218.69516731 51.72665541 217.84492446 51.72796903 216.96891668 51.72932246 C212.70353916 51.7358476 208.43816136 51.74216615 204.17278337 51.74838197 C168.78175326 51.80022374 133.39088987 51.88829663 98 52 C98.68326355 52.95470184 99.3665271 53.90940369 100.07049561 54.89303589 C100.97768165 56.16158608 101.88484603 57.43015176 102.79199219 58.69873047 C103.24105927 59.3260759 103.69012634 59.95342133 104.15280151 60.59977722 C107.58329751 65.39843205 110.94126819 70.24155079 114.25 75.125 C119.40413813 82.69547846 124.63158454 90.21137198 129.89379883 97.70703125 C134.06741005 103.65613726 138.2000584 109.63188253 142.30908203 115.62573242 C144.68884833 119.09618804 147.08068464 122.55690816 149.5 126 C153.90201907 132.26763667 158.22635588 138.58870153 162.56054688 144.90332031 C164.87195767 148.27007674 167.18605908 151.63498224 169.5 155 C172.27416606 159.03465613 175.04796307 163.06956407 177.8203125 167.10546875 C180.54499323 171.07160846 183.27162978 175.03639749 186 179 C186.38365723 179.55751953 186.76731445 180.11503906 187.16259766 180.68945312 C192.24179265 188.06515225 197.38652901 195.39200239 202.55834961 202.70288086 C206.29851719 207.99406721 209.99255022 213.31474007 213.671875 218.6484375 C216.33475337 222.49507375 219.04458033 226.3082308 221.75 230.125 C226.04477661 236.18567358 230.2617049 242.29433541 234.4375 248.4375 C238.69574831 254.69776057 243.04305886 260.87967074 247.5 267 C253.66218093 275.4647587 259.58332061 284.08120177 265.46533203 292.7421875 C267.8220077 296.20934254 270.18968333 299.6688757 272.5625 303.125 C273.00392334 303.76808105 273.44534668 304.41116211 273.90014648 305.07373047 C277.7920989 310.72792948 281.76025994 316.32705777 285.73071289 321.92626953 C288.54948513 325.91192078 291.31109707 329.92489245 294 334 C297.56138782 339.39316721 301.27097467 344.6692894 305.0090332 349.94042969 C309.43559866 356.18695042 313.81764961 362.46369155 318.1875 368.75 C318.87602051 369.74032227 319.56454102 370.73064453 320.27392578 371.75097656 C323.81621149 376.84893243 327.34989401 381.9526561 330.875 387.0625 C333.79038345 391.28155491 336.75674472 395.46103619 339.75 399.625 C346.58040185 409.13805723 353.13082405 418.84424796 359.71875 428.52587891 C368.24356555 441.04950999 368.24356555 441.04950999 377.078125 453.35546875 C380.81735038 458.50070368 384.39929723 463.75731009 388 469 C386.5701723 472.16553893 384.80931541 474.54830934 382.5625 477.1875 C378.90126637 481.69108268 375.69226898 486.37225367 372.5625 491.25 C372.09851807 491.97268066 371.63453613 492.69536133 371.15649414 493.43994141 C368.87615291 497.01148368 366.62558184 500.59968929 364.40234375 504.20703125 C363.79314087 505.18397949 363.79314087 505.18397949 363.17163086 506.18066406 C362.40637664 507.40979086 361.65022843 508.64464711 360.90454102 509.88574219 C359.875 511.53515625 359.875 511.53515625 358 514 C357.01 514 356.02 514 355 514 C353.71655273 512.66162109 353.71655273 512.66162109 352.43359375 510.7734375 C351.95341797 510.07863281 351.47324219 509.38382813 350.97851562 508.66796875 C350.46998047 507.91128906 349.96144531 507.15460938 349.4375 506.375 C348.35330274 504.79917762 347.26866132 503.22366074 346.18359375 501.6484375 C345.64460449 500.85920898 345.10561523 500.06998047 344.55029297 499.25683594 C342.40938172 496.14020861 340.20895543 493.06856933 338 490 C329.45429788 478.06127695 321.01675648 466.04735148 312.625 454 C311.95903809 453.04488525 311.29307617 452.08977051 310.60693359 451.10571289 C307.13110983 446.10861567 303.69782851 441.08883377 300.34350586 436.00927734 C298.90551019 433.85868597 297.42762899 431.73974283 295.9375 429.625 C292.51427891 424.76161321 289.16274887 419.85123105 285.8125 414.9375 C280.04448289 406.48524875 274.1711841 398.11207443 268.25146484 389.765625 C260.67673388 379.07884108 253.27530354 368.27051328 245.89453125 357.44921875 C239.66691606 348.32219554 233.37845284 339.24272017 227.02246094 330.20458984 C223.58752666 325.3072673 220.22451692 320.37258673 216.9375 315.375 C213.31339607 309.867527 209.51120052 304.51290723 205.625 299.1875 C200.77381476 292.53679589 196.13241087 285.78090325 191.60131836 278.90893555 C185.01233494 268.94254262 178.08177611 259.21355567 171.20166016 249.44726562 C167.73189898 244.50841076 164.32427482 239.53773389 161 234.5 C156.69635755 228.01623353 152.28479082 221.6217767 147.77636719 215.27832031 C139.66009853 203.85433376 131.72583062 192.31491964 123.85058594 180.72363281 C113.39189517 165.32859996 113.39189517 165.32859996 102.66015625 150.1237793 C97.65997666 143.1608276 92.83679319 136.07690799 88 129 C86.95715566 127.47647733 85.91418364 125.95304206 84.87109375 124.4296875 C82.12884051 120.42411171 79.3884506 116.41726461 76.6484375 112.41015625 C75.03710197 110.05424624 73.42495801 107.69889186 71.8125 105.34375 C71.28744873 104.57675781 70.76239746 103.80976563 70.22143555 103.01953125 C69.15530808 101.46216015 68.08906418 99.90486875 67.02270508 98.34765625 C64.0738168 94.03906915 61.13239708 89.72554977 58.19921875 85.40625 C52.33517279 76.775547 46.46226332 68.16256379 40.35473633 59.7019043 C37.13789479 55.23343124 34.09603604 50.66287488 31.06640625 46.06640625 C28.75690337 42.63926114 26.35727975 39.28712566 23.9375 35.9375 C20.96681756 31.82459212 18.11753383 27.6866285 15.4375 23.375 C12.26788166 18.27801279 8.70655697 13.55403193 5.015625 8.82421875 C2.99111284 5.98754765 1.52202458 3.12761447 0 0 Z " fill="#FDFDFC" transform="translate(324,309)"/>
<path d="M0 0 C0.69116415 -0.00115384 1.3823283 -0.00230769 2.09443682 -0.0034965 C4.43357617 -0.00616437 6.77264806 -0.0016396 9.11178398 0.00279331 C10.79642881 0.00235765 12.48107356 0.00148282 14.16571796 0.00020415 C18.81304996 -0.0020417 23.4603591 0.0019817 28.10768819 0.00698221 C33.11247144 0.01128523 38.11725331 0.00984039 43.12203789 0.00907993 C51.79916631 0.0085546 60.47628724 0.01170234 69.15341377 0.01731777 C81.69921087 0.02543156 94.24500433 0.02804787 106.79080378 0.02930576 C127.14363867 0.03149647 147.49646957 0.03815708 167.84930229 0.04760838 C187.62469271 0.056782 207.40008205 0.06386308 227.17547417 0.06811619 C229.00272729 0.06851027 229.00272729 0.06851027 230.86689462 0.06891232 C236.97785441 0.07021732 243.08881422 0.07148104 249.19977403 0.07272422 C299.92719116 0.08309743 350.65460395 0.10071626 401.38201714 0.12304783 C400.18416734 3.19976795 399.06201465 5.83737946 397.06170464 8.47070408 C396.61319145 9.06931248 396.16467827 9.66792088 395.70257378 10.28466892 C395.22554008 10.91195896 394.74850639 11.539249 394.25701714 12.18554783 C390.16890677 17.65629393 386.28083283 23.20235088 382.53045464 28.91211033 C379.94227816 32.78025772 377.26261509 36.57752958 374.56951714 40.37304783 C368.75797441 48.56752416 363.05506416 56.83230067 357.38201714 65.12304783 C351.75130779 73.35192154 346.09116432 81.55470066 340.31951714 89.68554783 C336.04581138 95.70865134 331.89137925 101.79782831 327.81487846 107.9558115 C324.42459806 113.07508703 320.93354792 118.11411597 317.38201714 123.12304783 C310.06378717 133.45401385 302.80999021 143.82337736 295.65496635 154.26806736 C293.69706163 157.12118591 291.72736599 159.96600607 289.75701714 162.81054783 C289.03127495 163.85855564 288.30553276 164.90656345 287.55779839 165.98632908 C286.09901464 168.08938716 284.63805136 170.19093498 283.17498589 172.29101658 C279.24230203 177.94554101 275.36936661 183.62887933 271.56951714 189.37304783 C267.5116683 195.50016227 263.31131729 201.51464348 259.05462456 207.50488377 C255.27122946 212.83808162 251.5623718 218.21831584 247.88201714 223.62304783 C243.71069447 229.74878382 239.48752728 235.83198151 235.19451714 241.87304783 C231.0252067 247.7414439 226.98455262 253.67891236 223.01873589 259.68628025 C220.32642308 263.74886453 217.54848996 267.73514661 214.69451714 271.68554783 C210.4436418 277.57372203 206.33670611 283.55267123 202.25701714 289.56054783 C196.98636761 297.31925987 191.67905643 305.05043708 186.31951714 312.74804783 C185.6509771 313.70839939 184.98243706 314.66875095 184.29363823 315.65820408 C181.1480531 320.1713352 177.99409553 324.67828473 174.82342339 329.17382908 C168.5231582 338.11522238 162.35570022 347.12580951 156.31951714 356.24804783 C150.49735084 365.04461972 144.48132921 373.65839495 138.25701714 382.17382908 C135.02436266 386.59651506 131.91042815 391.09244424 128.80779839 395.60742283 C125.77999449 400.00915564 122.70167139 404.3754588 119.63201714 408.74804783 C114.33699864 416.29718211 109.09763281 423.88217131 103.90838432 431.50439548 C101.27892469 435.36420803 98.62843371 439.20710137 95.94451714 443.02929783 C92.35113784 448.15086189 88.83227811 453.32100122 85.31951714 458.49804783 C80.30790698 465.86769444 75.25323998 473.20414193 70.13201714 480.49804783 C65.84169001 486.60971753 61.55926638 492.7261399 57.31951714 498.87304783 C56.67611382 499.80189793 56.67611382 499.80189793 56.01971245 500.74951267 C53.00765455 505.12711619 50.16699142 509.59792644 47.38201714 514.12304783 C43.76905873 512.91872836 43.60523334 512.22832849 41.81951714 508.99804783 C36.10433609 499.09173402 29.55991007 489.69540659 22.94451714 480.37304783 C22.53169487 479.78878025 22.1188726 479.20451267 21.69354057 478.60254002 C19.38024158 475.36427883 19.38024158 475.36427883 16.53436089 472.60742283 C15.38201714 471.12304783 15.38201714 471.12304783 15.33514214 468.44726658 C16.76651854 463.90211239 19.26008802 460.69454178 22.13201714 456.93554783 C23.32168112 455.33559211 24.50911253 453.73397436 25.69451714 452.13086033 C26.30553276 451.30747166 26.91654839 450.48408298 27.54607964 449.63574314 C30.50149753 445.5909079 33.31891491 441.45507381 36.13201714 437.31054783 C36.67761284 436.50923435 37.22320854 435.70792088 37.78533745 434.88232517 C38.83965295 433.33342011 39.8933881 431.78411981 40.94647026 430.23437595 C46.38770692 422.23168638 51.94435512 414.32696703 57.63201714 406.49804783 C63.83713389 397.94970211 69.8201965 389.26200046 75.7526226 380.52295017 C84.09290582 368.23871522 92.52265209 356.02578706 101.11297417 343.91504002 C103.3194619 340.79929935 105.5067192 337.67018133 107.69305229 334.54028416 C111.70334595 328.80077599 115.72000219 323.06572361 119.74139214 317.33398533 C128.08102574 305.44298376 136.34936357 293.50645167 144.53045464 281.50586033 C150.70088345 272.4594623 156.93300355 263.46344402 163.26482964 254.52929783 C166.76075874 249.59492784 170.22847107 244.64093582 173.69451714 239.68554783 C174.25711235 238.8812534 174.81970757 238.07695896 175.39935112 237.24829197 C176.50175783 235.67201103 177.60397252 234.09559579 178.70599174 232.51904392 C179.8593858 230.87018605 181.01391046 229.22211865 182.16937065 227.57470798 C185.70830072 222.52787762 189.2162531 217.46181374 192.69451714 212.37304783 C197.09084125 205.95856382 201.57596847 199.61354789 206.10857964 193.29492283 C210.49175714 187.17956177 214.7971945 181.02602458 218.94451714 174.74804783 C224.29342745 166.68874917 229.88757065 158.80142638 235.44500542 150.88525486 C244.72725597 137.64862986 253.92425066 124.35680047 263.00970268 110.98437595 C267.30975234 104.66630803 271.68150188 98.40399227 276.10564995 92.17236423 C279.40743461 87.51802787 282.65939459 82.83250143 285.88201714 78.12304783 C290.36075499 71.5779553 294.91301505 65.08740315 299.49920464 58.61718845 C300.21656792 57.60495213 300.21656792 57.60495213 300.94842339 56.57226658 C301.37067192 55.97760593 301.79292046 55.38294529 302.2279644 54.77026463 C303.30219993 53.23697351 304.3435325 51.68077479 305.38201714 50.12304783 C269.11755163 49.90717276 232.85364679 49.77034554 196.58854113 49.73925016 C192.30534367 49.73550992 188.02214712 49.73111652 183.73895073 49.72631931 C182.45991165 49.72490325 182.45991165 49.72490325 181.15503339 49.72345858 C167.35540491 49.7066236 153.55652622 49.63689884 139.75719841 49.5475613 C125.59343878 49.45704419 111.43036728 49.42351851 97.26632726 49.44268745 C88.52853107 49.45272269 79.79322207 49.41852616 71.05588572 49.32739627 C65.06094231 49.26913178 59.06755441 49.26632416 53.07247062 49.30669696 C49.6144497 49.32835944 46.16095138 49.32598626 42.70343971 49.25759029 C29.43696851 48.42044407 29.43696851 48.42044407 17.31751966 52.60272002 C14.01201757 56.08259529 11.96119574 59.94058811 10.15563178 64.35440433 C9.08071743 66.81188143 7.57875496 68.84494289 5.94842339 70.96289158 C5.45044243 71.64464451 4.95246147 72.32639744 4.43939018 73.02880955 C3.94608208 73.69928318 3.45277397 74.36975681 2.94451714 75.06054783 C-4.49243205 85.26855792 -11.67406635 95.63586534 -18.61798286 106.18554783 C-22.09577283 111.43786587 -25.80031216 116.49539806 -29.54937935 121.55468845 C-33.06104916 126.31239538 -36.36319458 131.18028308 -39.61017036 136.12304783 C-41.77621058 139.35946589 -44.0279431 142.5273834 -46.30548286 145.68554783 C-50.28735975 151.2116708 -54.15959369 156.80548802 -57.99298286 162.43554783 C-62.14805691 168.53700049 -66.3449371 174.6036084 -70.61798286 180.62304783 C-74.84703535 186.58153302 -79.00425988 192.58437608 -83.11798286 198.62304783 C-87.71051532 205.36458004 -92.37230766 212.05086528 -97.09405708 218.70239353 C-101.43372334 224.82944289 -105.6665754 231.02660431 -109.89215279 237.23266697 C-113.57828622 242.63496017 -117.3434816 247.9722255 -121.16803169 253.27710056 C-123.67000422 256.75950016 -126.07701616 260.28891416 -128.43048286 263.87304783 C-131.75516633 268.9134816 -135.25245948 273.80544116 -138.80548286 278.68554783 C-145.60606611 288.03325861 -152.125245 297.56008472 -158.61798286 307.12304783 C-165.07523515 316.62732924 -171.62326746 326.00401145 -178.61798286 335.12304783 C-188.00377978 333.53069883 -197.17674696 331.53661127 -206.3645649 329.04150486 C-214.72131315 326.78629251 -223.15531602 324.93286547 -231.61798286 323.12304783 C-231.14994877 318.2408098 -228.71162967 315.13265417 -225.80548286 311.37304783 C-224.79621333 310.03299813 -223.78845501 308.6918092 -222.78204536 307.34961033 C-222.25900826 306.65512791 -221.73597115 305.96064548 -221.19708443 305.24511814 C-218.62709591 301.79144773 -216.15295064 298.27188448 -213.68048286 294.74804783 C-212.67789107 293.3209558 -211.67528681 291.89387253 -210.67267036 290.46679783 C-210.17219185 289.75394627 -209.67171333 289.0410947 -209.1560688 288.30664158 C-207.59054419 286.08409361 -206.01577577 283.86837321 -204.43829536 281.65429783 C-198.11807642 272.79891633 -198.11807642 272.79891633 -192.18048286 263.68554783 C-188.65643633 258.02830121 -184.72950601 252.68969748 -180.8045063 247.30786228 C-176.74685781 241.7283066 -172.80779329 236.07920234 -168.93048286 230.37304783 C-164.78782111 224.27666048 -160.5878314 218.23342912 -156.28082466 212.25219822 C-152.73458192 207.31608598 -149.29519977 202.31041676 -145.86358833 197.29419041 C-142.49135605 192.37285738 -139.06748263 187.49047764 -135.61798286 182.62304783 C-131.27713413 176.49688377 -126.99845494 170.33205361 -122.75811958 164.13598728 C-119.46289316 159.32971295 -116.11407361 154.56384628 -112.74298286 149.81054783 C-105.11616379 139.04720095 -97.70054258 128.14009178 -90.29376411 117.22461033 C-84.92076626 109.32011149 -79.47908923 101.49707728 -73.78155708 93.822999 C-68.37707251 86.50731524 -63.3014522 78.96657461 -58.19366646 71.44238377 C-55.78175269 67.89215432 -53.35907825 64.34938297 -50.93048286 60.81054783 C-50.26085518 59.83468723 -50.26085518 59.83468723 -49.57769966 58.83911228 C-46.1708588 53.8905622 -42.68397875 49.00290323 -39.17364693 44.12744236 C-36.59392736 40.53081663 -34.11101547 36.88568792 -31.68048286 33.18554783 C-27.32839807 26.59147997 -22.64186988 20.26351946 -17.93878365 13.91845798 C-16.68092288 12.20860437 -15.44053261 10.48781588 -14.20782661 8.75976658 C-13.14241646 7.2689658 -13.14241646 7.2689658 -12.05548286 5.74804783 C-11.4354438 4.87406345 -10.81540474 4.00007908 -10.17657661 3.09961033 C-7.26140199 -0.59732791 -4.50064663 -0.00137972 0 0 Z " fill="#FCFDFC" transform="translate(1321.6179828643799,309.8769521713257)"/>
<path d="M0 0 C89.43 0 178.86 0 271 0 C271 0.33 271 0.66 271 1 C270.38930664 1.03440186 269.77861328 1.06880371 269.14941406 1.10424805 C205.08612444 4.93450591 148.11591612 28.5635741 99.1875 69.6875 C98.64818848 70.13907471 98.10887695 70.59064941 97.55322266 71.0559082 C94.20004354 73.89325365 91.07713547 76.86799733 88 80 C86.70467441 81.27501351 85.40763771 82.54828979 84.109375 83.8203125 C76.25159674 91.56046204 68.71400093 99.23413805 62 108 C61.24074219 108.94230469 60.48148438 109.88460937 59.69921875 110.85546875 C48.72558103 124.66440043 39.54473873 139.4796307 31.4375 155.125 C30.85387695 156.2505127 30.27025391 157.37602539 29.66894531 158.53564453 C24.71824965 168.25640627 20.85296688 178.18688456 17.29125977 188.47851562 C16.14152137 191.78907431 14.97235531 195.06968425 13.6796875 198.328125 C9.52812099 208.92898037 7.61491284 219.93468702 5.54882812 231.09619141 C5.04097871 233.7831847 4.48847355 236.45688638 3.92578125 239.1328125 C2.92368679 244.10487702 2.35743101 249.07924621 1.875 254.125 C1.78863281 254.98609375 1.70226562 255.8471875 1.61328125 256.734375 C1.40447046 258.82248294 1.20159018 260.9111826 1 263 C0.67 263 0.34 263 0 263 C0 176.21 0 89.42 0 0 Z " fill="#FDFDFD" transform="translate(0,0)"/>
<path d="M0 0 C88.11 0 176.22 0 267 0 C267 86.46 267 172.92 267 262 C266.67 262 266.34 262 266 262 C265.89510254 261.00540771 265.89510254 261.00540771 265.78808594 259.99072266 C264.37259718 246.81666415 262.72226909 233.89594894 259.50292969 221.03369141 C259.01033395 219.04178727 258.55193605 217.04479465 258.1015625 215.04296875 C248.5114756 173.29512981 227.73080699 130.57159261 198.16015625 99.30078125 C196.29490185 97.3140998 194.51084415 95.28861746 192.73046875 93.2265625 C183.42458257 82.5542424 173.2393138 72.61572758 162 64 C160.92907858 63.16223614 159.85879583 62.32365539 158.7890625 61.484375 C128.27343338 37.64780677 91.85345411 17.93759382 53.734375 9.82421875 C51.35427676 9.29890418 48.98777223 8.70388208 46.6484375 8.01953125 C42.09549758 6.7472429 37.5229679 5.84988584 32.875 5 C31.92737793 4.82629883 30.97975586 4.65259766 30.00341797 4.47363281 C20.05445952 2.72209033 10.06520179 1.78216292 0 1 C0 0.67 0 0.34 0 0 Z " fill="#FDFDFD" transform="translate(1781,0)"/>
<path d="M0 0 C0.33 0 0.66 0 1 0 C1.06469482 0.59611084 1.12938965 1.19222168 1.19604492 1.80639648 C9.35627645 75.38857008 41.00525407 144.26073618 98.875 192.0625 C100.57380749 193.38730646 102.28243952 194.69959813 104 196 C105.06755949 196.83315983 106.13389899 197.66788449 107.19921875 198.50390625 C117.71608598 206.72596115 128.52888035 214.12935076 140.05859375 220.85595703 C141.88662193 221.93318792 143.69392361 223.03883446 145.5 224.15234375 C158.5653891 232.03487208 172.83482789 237.44733977 187 243 C187.7616748 243.30454102 188.52334961 243.60908203 189.30810547 243.92285156 C213.31711521 253.41144224 240.42304247 255.94356045 266 257 C266 257.33 266 257.66 266 258 C178.22 258 90.44 258 0 258 C0 172.86 0 87.72 0 0 Z " fill="#FDFDFB" transform="translate(0,1790)"/>
<path d="M0 0 C0.33 0 0.66 0 1 0 C1 84.48 1 168.96 1 256 C-83.48 256 -167.96 256 -255 256 C-255 255.67 -255 255.34 -255 255 C-253.42605469 254.90525391 -253.42605469 254.90525391 -251.8203125 254.80859375 C-225.76275365 252.88728577 -200.13474595 246.94689546 -176 237 C-174.97648437 236.58766113 -173.95296875 236.17532227 -172.8984375 235.75048828 C-152.54577531 227.49011034 -133.60383031 217.15782982 -116 204 C-114.89613718 203.18838866 -113.79203362 202.37710445 -112.6875 201.56640625 C-102.6943112 194.1150896 -93.27695163 186.47481507 -84.55859375 177.55859375 C-82.3994267 175.3994267 -80.20884683 173.40162852 -77.875 171.4375 C-68.99177837 163.80009604 -61.93976202 154.37410239 -55 145 C-54.31381592 144.08250977 -54.31381592 144.08250977 -53.61376953 143.14648438 C-47.03200131 134.29849112 -41.13795025 125.13956317 -35.5625 115.625 C-34.98338867 114.63910889 -34.40427734 113.65321777 -33.80761719 112.63745117 C-25.9809507 99.06599327 -20.59947264 84.5904244 -15.11132812 69.95751953 C-14.46585409 68.23975317 -13.81587677 66.52363961 -13.15429688 64.81201172 C-5.25766337 44.36105072 -2.36558674 21.6781343 0 0 Z " fill="#FDFDFB" transform="translate(2047,1792)"/>
<path d="M0 0 C0.80824219 0.32871094 1.61648438 0.65742187 2.44921875 0.99609375 C14.25609696 6.2214962 21.73793802 16.02629195 26.63671875 27.73046875 C28.27796061 32.25341364 28.49874774 36.47121802 28.4375 41.25 C28.42992676 42.08265381 28.42235352 42.91530762 28.41455078 43.77319336 C28.0832844 56.2512969 23.26023952 67.3245081 15 76.6875 C4.56027807 86.52134521 -9.54487809 89.71482834 -23.41015625 89.375 C-35.9006143 88.65136494 -45.54124854 81.98076268 -53.8125 73.0625 C-61.15863002 64.24035771 -64.58723687 53.58019304 -64.5 42.1875 C-64.49427979 41.31311279 -64.48855957 40.43872559 -64.48266602 39.5378418 C-64.13441689 26.86133894 -58.59891381 17.67025341 -49.83203125 8.80859375 C-36.8217581 -3.35074932 -16.62065892 -7.61651717 0 0 Z " fill="#FDFDFC" transform="translate(1042,981)"/>
<path d="M0 0 C2.62527189 -0.05382106 5.24944713 -0.09358313 7.875 -0.125 C8.62136719 -0.14175781 9.36773438 -0.15851563 10.13671875 -0.17578125 C12.09194461 -0.1933959 14.04742021 -0.10320189 16 0 C19.01484776 3.01484776 18.35708856 6.45898711 18.4140625 10.5078125 C18.43342865 11.34843231 18.4527948 12.18905212 18.4727478 13.05514526 C18.53261658 15.74499303 18.57895771 18.43488343 18.625 21.125 C18.6631731 22.94663344 18.70222444 24.7682487 18.7421875 26.58984375 C18.83832398 31.05974852 18.92232769 35.52973779 19 40 C20.8097229 40.03758423 20.8097229 40.03758423 22.65600586 40.07592773 C27.11575661 40.16982523 31.57534513 40.27008833 36.03491211 40.37231445 C37.96814185 40.41573041 39.90141159 40.45740042 41.8347168 40.49731445 C44.60738202 40.55485631 47.37984457 40.6185962 50.15234375 40.68359375 C51.02213364 40.70030624 51.89192352 40.71701874 52.78807068 40.73423767 C58.88612829 40.88612829 58.88612829 40.88612829 60 42 C60.09986975 44.84335048 60.13877881 47.65697163 60.125 50.5 C60.13080078 51.69689453 60.13080078 51.69689453 60.13671875 52.91796875 C60.12660767 58.87339233 60.12660767 58.87339233 59 60 C57.19490627 60.09899561 55.38593072 60.12799151 53.578125 60.12939453 C52.42022461 60.13254669 51.26232422 60.13569885 50.06933594 60.13894653 C48.17876465 60.13591019 48.17876465 60.13591019 46.25 60.1328125 C44.96641602 60.13376923 43.68283203 60.13472595 42.36035156 60.13571167 C39.63996176 60.13718831 36.91960475 60.13503519 34.19921875 60.13037109 C30.70515331 60.12467381 27.21116467 60.12795299 23.71710205 60.13394356 C20.39472847 60.13841754 17.07237577 60.13528885 13.75 60.1328125 C12.48961914 60.13483673 11.22923828 60.13686096 9.93066406 60.13894653 C8.77276367 60.13579437 7.61486328 60.13264221 6.421875 60.12939453 C5.39674805 60.12859894 4.37162109 60.12780334 3.31542969 60.12698364 C1 60 1 60 0 59 C-0.09381302 57.15881971 -0.11743954 55.31402359 -0.11352539 53.47045898 C-0.11344986 52.28931015 -0.11337433 51.10816132 -0.11329651 49.89122009 C-0.10813522 48.6058284 -0.10297394 47.32043671 -0.09765625 45.99609375 C-0.0962413 44.68794205 -0.09482635 43.37979034 -0.09336853 42.03199768 C-0.0895441 38.54837141 -0.07971446 35.06478661 -0.06866455 31.58117676 C-0.05844882 28.02873292 -0.05387056 24.47628241 -0.04882812 20.92382812 C-0.03809212 13.94920168 -0.0210166 6.97460283 0 0 Z " fill="#F3F4F2" transform="translate(921,1067)"/>
<path d="M0 0 C16 0 16 0 18 1 C18 19.81 18 38.62 18 58 C-1.47 58 -20.94 58 -41 58 C-41 52.06 -41 46.12 -41 40 C-27.8 39.67 -14.6 39.34 -1 39 C-0.67 26.13 -0.34 13.26 0 0 Z " fill="#F9F9F8" transform="translate(1109,1068)"/>
<path d="M0 0 C19.8 0 39.6 0 60 0 C60 5.61 60 11.22 60 17 C46.47 17.33 32.94 17.66 19 18 C18.67 31.2 18.34 44.4 18 58 C14.95017742 59.52491129 11.77877461 59.14361434 8.4375 59.125 C7.73947266 59.12886719 7.04144531 59.13273438 6.32226562 59.13671875 C1.12663994 59.12663994 1.12663994 59.12663994 0 58 C-0.09376053 56.18944975 -0.1174411 54.37522799 -0.11352539 52.56225586 C-0.11340454 51.38481812 -0.11328369 50.20738037 -0.11315918 48.9942627 C-0.10804321 47.74705444 -0.10292725 46.49984619 -0.09765625 45.21484375 C-0.09664917 44.07567505 -0.09564209 42.93650635 -0.09460449 41.76281738 C-0.08935338 37.48770142 -0.07539227 33.21259975 -0.0625 28.9375 C-0.041875 19.388125 -0.02125 9.83875 0 0 Z " fill="#F7F7F5" transform="translate(921,922)"/>
<path d="M0 0 C19.47 0 38.94 0 59 0 C59 19.14 59 38.28 59 58 C53.06 58 47.12 58 41 58 C40.67 44.8 40.34 31.6 40 18 C20.2 17.505 20.2 17.505 0 17 C0 11.39 0 5.78 0 0 Z " fill="#FAFAF8" transform="translate(1068,922)"/>
<path d="M0 0 C135.63 0 271.26 0 411 0 C411.33 0.66 411.66 1.32 412 2 C411.13955979 2.00097681 410.27911958 2.00195362 409.39260542 2.00296003 C358.44635392 2.06117566 307.50014525 2.1349295 256.55394665 2.22898628 C250.44286568 2.24025505 244.33178448 2.2513934 238.22070312 2.26245117 C237.00404753 2.26465486 235.78739194 2.26685854 234.533868 2.269129 C214.80908685 2.30454444 195.08430574 2.32938457 175.35950454 2.35034702 C155.1345074 2.3720753 134.90955168 2.40509727 114.68458974 2.44870156 C102.19504774 2.47526964 89.70555739 2.49292698 77.2159885 2.49934604 C68.66259159 2.5045842 60.1092598 2.52074791 51.55589773 2.54566566 C46.61396789 2.55973482 41.67215476 2.56883141 36.73020363 2.56500816 C32.21249945 2.56161891 27.6950453 2.57184034 23.17739241 2.59323552 C21.53673022 2.59854054 19.8960423 2.59869989 18.25538011 2.59339563 C16.03740412 2.58695133 13.82027076 2.59867293 11.60236549 2.61523914 C10.36675554 2.61713775 9.13114558 2.61903635 7.8580929 2.62099248 C6.91492225 2.74606496 5.97175159 2.87113744 5 3 C4.01 4.485 4.01 4.485 3 6 C2.01 4.02 1.02 2.04 0 0 Z " fill="#949798" transform="translate(324,309)"/>
<path d="M0 0 C6.6 0 13.2 0 20 0 C20.02255473 7.9361421 20.04091723 15.87225946 20.05181217 23.80842495 C20.05704008 27.49314498 20.06413605 31.17784203 20.07543945 34.86254883 C20.08627162 38.41570831 20.09227753 41.96884563 20.09487724 45.52202034 C20.0967309 46.88045666 20.10035038 48.23889171 20.10573006 49.59731865 C20.11294475 51.49382223 20.11340809 53.39034793 20.11352539 55.28686523 C20.115746 56.36830307 20.11796661 57.44974091 20.12025452 58.56394958 C20 61 20 61 19 62 C17.1281906 62.09386381 15.2528194 62.11743804 13.37866211 62.11352539 C12.17749252 62.11344986 10.97632294 62.11337433 9.73875427 62.11329651 C8.4314888 62.10813522 7.12422333 62.10297394 5.77734375 62.09765625 C4.43355868 62.09579198 3.08977293 62.09436812 1.74598694 62.09336853 C-1.79682277 62.08954402 -5.3395917 62.07971432 -8.88238525 62.06866455 C-12.49515227 62.05844899 -16.10792584 62.0538706 -19.72070312 62.04882812 C-26.81382039 62.03809198 -33.90690325 62.02049572 -41 62 C-41 55.73 -41 49.46 -41 43 C-40.67 43 -40.34 43 -40 43 C-40 48.61 -40 54.22 -40 60 C-20.53 60 -1.06 60 19 60 C19 41.19 19 22.38 19 3 C13.06 2.67 7.12 2.34 1 2 C1 14.87 1 27.74 1 41 C0.67 41 0.34 41 0 41 C0 27.47 0 13.94 0 0 Z " fill="#5C5D5B" transform="translate(1108,1066)"/>
<path d="M0 0 C1.62215675 0.00333092 1.62215675 0.00333092 3.27708435 0.00672913 C4.5154303 0.00684998 5.75377625 0.00697083 7.02964783 0.00709534 C8.99762329 0.01476929 8.99762329 0.01476929 11.00535583 0.02259827 C12.8025708 0.02410889 12.8025708 0.02410889 14.63609314 0.02565002 C19.13288829 0.03090147 23.62966985 0.04486257 28.12644958 0.05775452 C38.17082458 0.07837952 48.21519958 0.09900452 58.56394958 0.12025452 C58.56394958 20.25025452 58.56394958 40.38025452 58.56394958 61.12025452 C52.62394958 61.12025452 46.68394958 61.12025452 40.56394958 61.12025452 C40.56394958 60.79025452 40.56394958 60.46025452 40.56394958 60.12025452 C46.17394958 60.12025452 51.78394958 60.12025452 57.56394958 60.12025452 C57.56394958 40.98025452 57.56394958 21.84025452 57.56394958 2.12025452 C38.09394958 2.12025452 18.62394958 2.12025452 -1.43605042 2.12025452 C-1.43605042 7.73025452 -1.43605042 13.34025452 -1.43605042 19.12025452 C11.76394958 19.12025452 24.96394958 19.12025452 38.56394958 19.12025452 C38.56394958 19.45025452 38.56394958 19.78025452 38.56394958 20.12025452 C24.70394958 20.12025452 10.84394958 20.12025452 -3.43605042 20.12025452 C-3.43605042 0.16961906 -3.43605042 0.16961906 0 0 Z " fill="#434542" transform="translate(1069.436050415039,919.8797454833984)"/>
<path d="M0 0 C3.11822675 3.01387664 4.27982833 5.16993826 4.390625 9.42578125 C4.36423849 11.05514818 4.31682471 12.68429016 4.25 14.3125 C4.23195313 15.14845703 4.21390625 15.98441406 4.1953125 16.84570312 C4.14841126 18.89763228 4.07667411 20.94896756 4 23 C3.34 23.33 2.68 23.66 2 24 C2 19.38 2 14.76 2 10 C1.01 10.33 0.02 10.66 -1 11 C-0.67 7.37 -0.34 3.74 0 0 Z " fill="#0D100B" transform="translate(5,228)"/>
<path d="M0 0 C0.99 0.66 1.98 1.32 3 2 C2.23997083 3.31878578 1.46656347 4.6298684 0.6875 5.9375 C0.25824219 6.66839844 -0.17101563 7.39929688 -0.61328125 8.15234375 C-2 10 -2 10 -5 11 C-6.66589237 12.85811713 -6.66589237 12.85811713 -8.1875 15.0625 C-8.71730469 15.79597656 -9.24710938 16.52945312 -9.79296875 17.28515625 C-10.19128906 17.85105469 -10.58960938 18.41695313 -11 19 C-11 14.91697335 -8.92661787 12.68414006 -6.625 9.5 C-5.80462989 8.34379087 -4.98431554 7.18754218 -4.1640625 6.03125 C-3.09285156 4.53078125 -3.09285156 4.53078125 -2 3 C-1.34 2.01 -0.68 1.02 0 0 Z " fill="#191B19" transform="translate(1640,430)"/>
<path d="M0 0 C6.27 0.33 12.54 0.66 19 1 C19 1.66 19 2.32 19 3 C13.06 3 7.12 3 1 3 C0.67 2.01 0.34 1.02 0 0 Z " fill="#1F2220" transform="translate(1108,980)"/>
<path d="M0 0 C10.23 0 20.46 0 31 0 C31 0.33 31 0.66 31 1 C30.19256348 1.01458252 29.38512695 1.02916504 28.55322266 1.04418945 C24.9099873 1.11846086 21.26768967 1.21519025 17.625 1.3125 C16.35398437 1.33505859 15.08296875 1.35761719 13.7734375 1.38085938 C11.95585937 1.4340332 11.95585937 1.4340332 10.1015625 1.48828125 C8.42054443 1.52755737 8.42054443 1.52755737 6.70556641 1.56762695 C5.81272949 1.71031006 4.91989258 1.85299316 4 2 C3.01 3.485 3.01 3.485 2 5 C1.34 3.35 0.68 1.7 0 0 Z " fill="#CED0CD" transform="translate(325,310)"/>
<path d="M0 0 C0.99 0 1.98 0 3 0 C2.52758009 4.25177923 0.15035929 6.29969203 -3 9 C-3.99 9 -4.98 9 -6 9 C-5.07544441 7.491987 -4.1349253 5.99375083 -3.1875 4.5 C-2.66542969 3.6646875 -2.14335938 2.829375 -1.60546875 1.96875 C-1.07566406 1.3190625 -0.54585937 0.669375 0 0 Z " fill="#1B1D1A" transform="translate(1333,371)"/>
<path d="M0 0 C2.64 0 5.28 0 8 0 C7.67 0.99 7.34 1.98 7 3 C4.36 2.67 1.72 2.34 -1 2 C-0.67 1.34 -0.34 0.68 0 0 Z " fill="#0D100A" transform="translate(1130,1398)"/>
<path d="M0 0 C2.4294516 3.6441774 2.16179575 5.71241272 2 10 C1.01 10.33 0.02 10.66 -1 11 C-0.67 7.37 -0.34 3.74 0 0 Z " fill="#1A1C1A" transform="translate(5,228)"/>
<path d="M0 0 C0.33 0.66 0.66 1.32 1 2 C0.22265625 3.9453125 0.22265625 3.9453125 -0.9375 6.125 C-1.31777344 6.84945313 -1.69804688 7.57390625 -2.08984375 8.3203125 C-2.39019531 8.87460937 -2.69054688 9.42890625 -3 10 C-3.99 9.67 -4.98 9.34 -6 9 C-4.02 6.03 -2.04 3.06 0 0 Z " fill="#232522" transform="translate(1320,390)"/>
<path d="M0 0 C0.99 0.66 1.98 1.32 3 2 C2.34 3.32 1.68 4.64 1 6 C0.01 5.67 -0.98 5.34 -2 5 C-2.33 4.01 -2.66 3.02 -3 2 C-2.01 1.34 -1.02 0.68 0 0 Z " fill="#C5C4BD" transform="translate(1368,818)"/>
<path d="M0 0 C0.33 1.32 0.66 2.64 1 4 C0.01 5.485 0.01 5.485 -1 7 C-1.66 7 -2.32 7 -3 7 C-3.33 7.99 -3.66 8.98 -4 10 C-4.66 9.67 -5.32 9.34 -6 9 C-4.02 6.03 -2.04 3.06 0 0 Z " fill="#2A2C29" transform="translate(1657,405)"/>
</svg>
